<?xml version="1.0" encoding="UTF-8" standalone="no"?>
<!-- Created with Inkscape (http://www.inkscape.org/) -->

<svg
   xmlns:dc="http://purl.org/dc/elements/1.1/"
   xmlns:cc="http://creativecommons.org/ns#"
   xmlns:rdf="http://www.w3.org/1999/02/22-rdf-syntax-ns#"
   xmlns:svg="http://www.w3.org/2000/svg"
   xmlns="http://www.w3.org/2000/svg"
   xmlns:sodipodi="http://sodipodi.sourceforge.net/DTD/sodipodi-0.dtd"
   xmlns:inkscape="http://www.inkscape.org/namespaces/inkscape"
   width="340"
   height="60"
   id="svg2"
   version="1.1"
   inkscape:version="0.91 r13725"
   sodipodi:docname="Square,_Inc._logo.svg"
   inkscape:export-filename="retrofit-facebook.png"
   inkscape:export-xdpi="158.82353"
   inkscape:export-ydpi="158.82353">
  <title
     id="title3166">Square, Inc. logo</title>
  <defs
     id="defs4">
    <clipPath
       id="clipPath3045"
       clipPathUnits="userSpaceOnUse">
      <path
         id="path3047"
         d="m 0,76.21 288,0 L 288,0 0,0 0,76.21 Z"
         inkscape:connector-curvature="0" />
    </clipPath>
  </defs>
  <sodipodi:namedview
     id="base"
     pagecolor="#ffffff"
     bordercolor="#666666"
     borderopacity="1.0"
     inkscape:pageopacity="0.0"
     inkscape:pageshadow="2"
     inkscape:zoom="1.3198416"
     inkscape:cx="370.671"
     inkscape:cy="281.97801"
     inkscape:document-units="px"
     inkscape:current-layer="layer1"
     showgrid="false"
     units="px"
     inkscape:window-width="1855"
     inkscape:window-height="1056"
     inkscape:window-x="65"
     inkscape:window-y="24"
     inkscape:window-maximized="1"
     fit-margin-top="0"
     fit-margin-left="0"
     fit-margin-right="0"
     fit-margin-bottom="0" />
  <metadata
     id="metadata7">
    <rdf:RDF>
      <cc:Work
         rdf:about="">
        <dc:format>image/svg+xml</dc:format>
        <dc:type
           rdf:resource="http://purl.org/dc/dcmitype/StillImage" />
        <dc:title>Square, Inc. logo</dc:title>
        <dc:source>http://www.brandsoftheworld.com</dc:source>
        <dc:description>Converted from Adobe Illustrator to SVG</dc:description>
        <dc:creator>
          <cc:Agent>
            <dc:title>Square, Inc.</dc:title>
          </cc:Agent>
        </dc:creator>
        <dc:publisher>
          <cc:Agent>
            <dc:title>Square, Inc.</dc:title>
          </cc:Agent>
        </dc:publisher>
        <dc:date>2015-07-25</dc:date>
      </cc:Work>
    </rdf:RDF>
  </metadata>
  <g
     inkscape:label="Layer 1"
     inkscape:groupmode="layer"
     id="layer1"
     transform="translate(-788.33141,-1045.4735)">
    <path
       id="path3051"
       style="fill:#242627;fill-opacity:1;fill-rule:nonzero;stroke:none"
       d="m 669.17552,728.64312 -35.46584,0 c -4.87586,0 -8.86763,3.9902 -8.86763,8.86763 l 0,35.46584 c 0,4.87509 3.99177,8.86451 8.86763,8.86451 l 35.46584,0 c 4.87587,0 8.86763,-3.98942 8.86763,-8.86451 l 0,-35.46584 c 0,-4.87743 -3.99176,-8.86763 -8.86763,-8.86763 m -0.80601,40.70879 c 0,1.54953 -1.26914,2.81477 -2.82024,2.81477 l -28.21568,0 c -1.55031,0 -2.81946,-1.26524 -2.81946,-2.81477 l 0,-28.21491 c 0,-1.55031 1.26915,-2.81946 2.81946,-2.81946 l 28.21568,0 c 1.5511,0 2.82024,1.26915 2.82024,2.81946 l 0,28.21491 z m -9.67051,-8.46776 c 0,0.88958 -0.72556,1.6128 -1.61045,1.6128 l -11.28409,0 c -0.88723,0 -1.61045,-0.72322 -1.61045,-1.6128 l 0,-11.2833 c 0,-0.88645 0.72322,-1.61123 1.61045,-1.61123 l 11.28409,0 c 0.88489,0 1.61045,0.72478 1.61045,1.61123 l 0,11.2833 z"
       inkscape:connector-curvature="0" />
    <path
       id="path3055"
       style="fill:#242627;fill-opacity:1;fill-rule:nonzero;stroke:none"
       d="m 702.66532,772.7105 c -3.15452,0 -6.18641,-1.21526 -8.32249,-3.34899 -1.90645,-1.90177 -2.96316,-4.37368 -2.96316,-6.95883 l 3.19512,0 c 0,1.7315 0.71697,3.40131 2.02439,4.70248 1.53938,1.53235 3.75277,2.41489 6.06848,2.41489 l 0.0266,0 c 4.45803,0 8.07959,-3.1178 8.07959,-6.94946 -0.003,-2.87491 -1.59249,-5.15625 -9.32765,-6.94711 -3.14826,-0.72869 -5.27028,-1.70339 -6.68469,-3.06626 -1.50345,-1.45816 -2.23995,-3.39898 -2.23995,-5.9318 0,-5.0024 4.48458,-9.0746 9.99776,-9.0746 2.64295,0 5.13282,0.9091 7.01584,2.56094 1.9416,1.70495 3.01472,4.00582 3.01472,6.47695 l -3.19513,0 c 0,-3.22481 -3.06392,-5.84511 -6.83543,-5.84511 -3.69029,0 -6.80576,2.6945 -6.80576,5.88182 0,2.91396 1.00048,4.62594 6.45508,5.88884 5.8248,1.34569 11.78628,3.59657 11.80112,10.05399 0,2.74839 -1.19183,5.31714 -3.35524,7.23375 -2.11967,1.87756 -4.9321,2.9085 -7.91791,2.9085 l -0.0312,0 z"
       inkscape:connector-curvature="0" />
    <path
       id="path3059"
       style="fill:#242627;fill-opacity:1;fill-rule:nonzero;stroke:none"
       d="m 740.28167,781.794 0,-13.98405 -0.0898,0 c -2.07203,3.17404 -5.64282,4.80636 -9.39637,4.80636 -7.23219,0 -12.97108,-5.43117 -12.97108,-12.7071 0,-7.23609 5.874,-12.61806 12.97108,-12.61806 3.75355,0 7.32434,1.6331 9.39637,4.854 l 0.0898,0 0,-4.237 3.08969,0 0,33.88585 -3.08969,0 z m -9.48619,-31.72244 c -5.73655,0 -9.87748,4.27761 -9.87748,9.96964 0,5.64908 4.23153,9.79548 9.87748,9.79548 5.47412,0 9.66426,-4.45881 9.66426,-9.84234 0,-5.38118 -4.19014,-9.92278 -9.66426,-9.92278"
       inkscape:connector-curvature="0" />
    <path
       id="path3063"
       style="fill:#242627;fill-opacity:1;fill-rule:nonzero;stroke:none"
       d="m 797.17517,772.04125 0,-4.23388 -0.0898,0 c -2.11967,3.17248 -5.64673,4.8048 -9.39794,4.8048 -7.23062,0 -12.96951,-5.42492 -12.96951,-12.70319 0,-7.23531 5.86619,-12.6204 12.96951,-12.6204 3.79651,0 7.32513,1.5917 9.39794,4.85478 l 0.0898,0 0,-4.23388 3.08422,0 0,24.13177 -3.08422,0 z m -9.48776,-21.96992 c -5.73108,0 -9.87826,4.27761 -9.87826,9.97042 0,5.64595 4.23466,9.79548 9.87826,9.79548 5.471,0 9.66036,-4.45959 9.66036,-9.84234 0,-5.38118 -4.18936,-9.92356 -9.66036,-9.92356"
       inkscape:connector-curvature="0" />
    <path
       id="path3067"
       style="fill:#242627;fill-opacity:1;fill-rule:nonzero;stroke:none"
       d="m 809.51581,757.92349 0,14.11994 -3.09203,0 0,-24.13644 3.09203,0 0,3.48566 0.082,0 c 1.32772,-3.08813 3.66451,-3.8832 6.79716,-4.10345 l 0,3.26855 c -4.23466,0.35145 -6.87917,3.04126 -6.87917,7.36574"
       inkscape:connector-curvature="0" />
    <path
       id="path3071"
       style="fill:#242627;fill-opacity:1;fill-rule:nonzero;stroke:none"
       d="m 842.78973,761.10128 -21.96992,0 c 0.22181,4.76418 4.63688,8.73563 9.35811,8.73563 3.70435,0 7.32356,-2.11967 8.64738,-5.6928 l 3.25995,0 c -1.75962,5.02738 -6.5238,8.46775 -11.86516,8.46775 -6.96898,0 -12.57198,-5.68891 -12.57198,-12.61728 0,-6.87995 5.603,-12.70631 12.52981,-12.70631 7.06114,0 12.66414,5.95835 12.66414,12.93124 0,0.3046 -0.0524,0.57014 -0.0524,0.88177 m -12.56964,-11.03182 c -4.81183,0 -8.64816,3.5294 -9.40028,8.25063 l 18.84039,0 c -0.79429,-4.72123 -4.58611,-8.25063 -9.44011,-8.25063"
       inkscape:connector-curvature="0" />
    <path
       id="path3075"
       style="fill:#242627;fill-opacity:1;fill-rule:nonzero;stroke:none"
       d="m 767.33576,772.07249 0,-3.77074 -0.0875,0 c -1.41988,2.97332 -4.56659,4.34791 -7.75937,4.34791 -3.14827,0 -6.33871,-1.10748 -8.33576,-3.63328 -1.72604,-2.17356 -2.12436,-5.10002 -2.12436,-7.80154 l 0,-13.38892 3.10141,0 0,13.34205 c 0,5.00943 1.81586,8.69113 7.35871,8.69113 2.03688,0 3.63328,-0.53578 5.1422,-1.9541 2.12982,-2.03454 2.52501,-4.43382 2.52501,-7.26733 l 0,-12.81175 3.10531,0 0,24.24657 -2.92567,0 z"
       inkscape:connector-curvature="0" />
    <rect
       style="opacity:1;fill:#ffffff;fill-opacity:1;stroke:none;stroke-width:10;stroke-linecap:round;stroke-linejoin:round;stroke-miterlimit:4;stroke-dasharray:none;stroke-opacity:1"
       id="rect8091"
       width="10.715025"
       height="14.733158"
       x="634.50977"
       y="764.98157"
       ry="1.4127687" />
    <rect
       style="opacity:1;fill:#ffffff;fill-opacity:1;stroke:none;stroke-width:10;stroke-linecap:round;stroke-linejoin:round;stroke-miterlimit:4;stroke-dasharray:none;stroke-opacity:1"
       id="rect8091-1"
       width="10.715025"
       height="14.733158"
       x="-118.4277"
       y="1006.0529"
       ry="1.4127687"
       transform="matrix(0.67999733,-0.73321459,0.73321459,0.67999733,0,0)"
       inkscape:transform-center-x="2.6787562"
       inkscape:transform-center-y="0.53575125" />
    <path
       id="path3051-0"
       style="fill:#242627;fill-opacity:1;fill-rule:nonzero;stroke:none"
       d="m 590.27679,689.97784 -35.46584,0 c -4.87586,0 -8.86763,3.9902 -8.86763,8.86763 l 0,35.46584 c 0,4.87509 3.99177,8.86451 8.86763,8.86451 l 35.46584,0 c 4.87587,0 8.86763,-3.98942 8.86763,-8.86451 l 0,-35.46584 c 0,-4.87743 -3.99176,-8.86763 -8.86763,-8.86763 m -0.80601,40.70879 c 0,1.54953 -1.26914,2.81477 -2.82024,2.81477 l -28.21568,0 c -1.55031,0 -2.81946,-1.26524 -2.81946,-2.81477 l 0,-28.21491 c 0,-1.55031 1.26915,-2.81946 2.81946,-2.81946 l 28.21568,0 c 1.5511,0 2.82024,1.26915 2.82024,2.81946 l 0,28.21491 z m -9.67051,-8.46776 c 0,0.88958 -0.72556,1.6128 -1.61045,1.6128 l -11.28409,0 c -0.88723,0 -1.61045,-0.72322 -1.61045,-1.6128 l 0,-11.2833 c 0,-0.88645 0.72322,-1.61123 1.61045,-1.61123 l 11.28409,0 c 0.88489,0 1.61045,0.72478 1.61045,1.61123 l 0,11.2833 z"
       inkscape:connector-curvature="0" />
    <g
       id="g8144">
      <path
         inkscape:connector-curvature="0"
         d="m 681.75632,644.97474 -35.46584,0 c -4.87586,0 -8.86763,3.9902 -8.86763,8.86763 l 0,35.46584 c 0,4.87509 3.99177,8.86451 8.86763,8.86451 l 35.46584,0 c 4.87587,0 8.86763,-3.98942 8.86763,-8.86451 l 0,-35.46584 c 0,-4.87743 -3.99176,-8.86763 -8.86763,-8.86763 m -0.80601,40.70879 c 0,1.54953 -1.26914,2.81477 -2.82024,2.81477 l -28.21568,0 c -1.55031,0 -2.81946,-1.26524 -2.81946,-2.81477 l 0,-28.21491 c 0,-1.55031 1.26915,-2.81946 2.81946,-2.81946 l 28.21568,0 c 1.5511,0 2.82024,1.26915 2.82024,2.81946 l 0,28.21491 z m -9.67051,-8.46776 c 0,0.88958 -0.72556,1.6128 -1.61045,1.6128 l -11.28409,0 c -0.88723,0 -1.61045,-0.72322 -1.61045,-1.6128 l 0,-11.2833 c 0,-0.88645 0.72322,-1.61123 1.61045,-1.61123 l 11.28409,0 c 0.88489,0 1.61045,0.72478 1.61045,1.61123 l 0,11.2833 z"
         style="fill:#242627;fill-opacity:1;fill-rule:nonzero;stroke:none"
         id="path3051-4" />
      <rect
         ry="1.4127687"
         y="681.31317"
         x="647.09058"
         height="14.733158"
         width="10.715025"
         id="rect8091-5"
         style="opacity:1;fill:#ffffff;fill-opacity:1;stroke:none;stroke-width:10;stroke-linecap:round;stroke-linejoin:round;stroke-miterlimit:4;stroke-dasharray:none;stroke-opacity:1" />
      <rect
         inkscape:transform-center-y="0.53575125"
         inkscape:transform-center-x="2.6787562"
         transform="matrix(0.67999733,-0.73321459,0.73321459,0.67999733,0,0)"
         ry="1.4127687"
         y="958.383"
         x="-48.525902"
         height="14.733158"
         width="10.715025"
         id="rect8091-1-7"
         style="opacity:1;fill:#ffffff;fill-opacity:1;stroke:none;stroke-width:10;stroke-linecap:round;stroke-linejoin:round;stroke-miterlimit:4;stroke-dasharray:none;stroke-opacity:1" />
    </g>
    <g
       id="g8189"
       transform="translate(-282.60878,11.786527)">
      <rect
         ry="8.9251375"
         y="728.53436"
         x="707.13434"
         height="53.415501"
         width="53.415501"
         id="rect8155"
         style="opacity:1;fill:#242627;fill-opacity:1;stroke:none;stroke-width:10;stroke-linecap:round;stroke-linejoin:round;stroke-miterlimit:4;stroke-dasharray:none;stroke-opacity:1" />
      <rect
         ry="5.8867927"
         y="737.62634"
         x="716.22632"
         height="35.231499"
         width="35.231499"
         id="rect8155-1"
         style="opacity:1;fill:#ffffff;fill-opacity:1;stroke:none;stroke-width:10;stroke-linecap:round;stroke-linejoin:round;stroke-miterlimit:4;stroke-dasharray:none;stroke-opacity:1" />
      <rect
         ry="2.6269021"
         y="747.38135"
         x="725.98126"
         height="15.721583"
         width="15.721583"
         id="rect8155-8"
         style="opacity:1;fill:#242627;fill-opacity:1;stroke:none;stroke-width:10;stroke-linecap:round;stroke-linejoin:round;stroke-miterlimit:4;stroke-dasharray:none;stroke-opacity:1" />
    </g>
    <g
       id="g8281"
       transform="translate(-153.38233,8.6337512)">
      <rect
         ry="4.5440211"
         y="790.84241"
         x="607.83356"
         height="27.19523"
         width="35.231499"
         id="rect8155-1-3"
         style="opacity:1;fill:#ffffff;fill-opacity:1;stroke:none;stroke-width:10;stroke-linecap:round;stroke-linejoin:round;stroke-miterlimit:4;stroke-dasharray:none;stroke-opacity:1" />
      <rect
         ry="2.0277085"
         y="798.37231"
         x="617.5885"
         height="12.135507"
         width="15.721583"
         id="rect8155-8-7"
         style="opacity:1;fill:#242627;fill-opacity:1;stroke:none;stroke-width:10;stroke-linecap:round;stroke-linejoin:round;stroke-miterlimit:4;stroke-dasharray:none;stroke-opacity:1" />
      <rect
         ry="1.4127687"
         y="809.93152"
         x="607.76953"
         height="14.733158"
         width="10.715025"
         id="rect8091-4"
         style="opacity:1;fill:#ffffff;fill-opacity:1;stroke:none;stroke-width:10;stroke-linecap:round;stroke-linejoin:round;stroke-miterlimit:4;stroke-dasharray:none;stroke-opacity:1" />
      <rect
         inkscape:transform-center-y="0.50140061"
         inkscape:transform-center-x="2.3819523"
         transform="matrix(0.66112085,-0.75027943,0.7156065,0.69850364,0,0)"
         ry="1.2871468"
         y="1016.4778"
         x="-143.07254"
         height="13.423101"
         width="9.7998562"
         id="rect8091-1-9"
         style="opacity:1;fill:#ffffff;fill-opacity:1;stroke:none;stroke-width:10;stroke-linecap:round;stroke-linejoin:round;stroke-miterlimit:4;stroke-dasharray:none;stroke-opacity:1" />
    </g>
    <g
       id="g8321"
       transform="translate(59.751639,27.529458)">
      <rect
         ry="8.9251375"
         y="782.28619"
         x="599.27734"
         height="53.415501"
         width="53.415501"
         id="rect8155-11"
         style="opacity:1;fill:#242627;fill-opacity:1;stroke:none;stroke-width:10;stroke-linecap:round;stroke-linejoin:round;stroke-miterlimit:4;stroke-dasharray:none;stroke-opacity:1" />
      <rect
         ry="4.5440211"
         y="792.65961"
         x="608.15594"
         height="27.19523"
         width="35.231499"
         id="rect8155-1-3-9"
         style="opacity:1;fill:#ffffff;fill-opacity:1;stroke:none;stroke-width:10;stroke-linecap:round;stroke-linejoin:round;stroke-miterlimit:4;stroke-dasharray:none;stroke-opacity:1" />
      <rect
         ry="2.0277085"
         y="800.18951"
         x="617.91089"
         height="12.135507"
         width="15.721583"
         id="rect8155-8-7-4"
         style="opacity:1;fill:#242627;fill-opacity:1;stroke:none;stroke-width:10;stroke-linecap:round;stroke-linejoin:round;stroke-miterlimit:4;stroke-dasharray:none;stroke-opacity:1" />
      <rect
         ry="1.4127687"
         y="811.88263"
         x="608.15887"
         height="14.733158"
         width="10.715025"
         id="rect8091-4-5"
         style="opacity:1;fill:#ffffff;fill-opacity:1;stroke:none;stroke-width:10;stroke-linecap:round;stroke-linejoin:round;stroke-miterlimit:4;stroke-dasharray:none;stroke-opacity:1" />
      <rect
         inkscape:transform-center-y="0.50140061"
         inkscape:transform-center-x="2.3819523"
         transform="matrix(0.66112085,-0.75027943,0.7156065,0.69850364,0,0)"
         ry="1.2871468"
         y="1017.923"
         x="-144.14912"
         height="13.423101"
         width="9.7998562"
         id="rect8091-1-9-8"
         style="opacity:1;fill:#ffffff;fill-opacity:1;stroke:none;stroke-width:10;stroke-linecap:round;stroke-linejoin:round;stroke-miterlimit:4;stroke-dasharray:none;stroke-opacity:1" />
    </g>
    <g
       id="g8315"
       transform="translate(-249.12433,42.324348)">
      <rect
         ry="4.5440211"
         y="807.92853"
         x="695.71924"
         height="27.19523"
         width="35.231499"
         id="rect8155-1-3-9-8"
         style="opacity:1;fill:#ffffff;fill-opacity:1;stroke:none;stroke-width:10;stroke-linecap:round;stroke-linejoin:round;stroke-miterlimit:4;stroke-dasharray:none;stroke-opacity:1" />
      <rect
         ry="2.0277085"
         y="815.45844"
         x="705.47418"
         height="12.135507"
         width="15.721583"
         id="rect8155-8-7-4-6"
         style="opacity:1;fill:#242627;fill-opacity:1;stroke:none;stroke-width:10;stroke-linecap:round;stroke-linejoin:round;stroke-miterlimit:4;stroke-dasharray:none;stroke-opacity:1" />
      <rect
         ry="1.4127687"
         y="827.15155"
         x="695.72217"
         height="14.733158"
         width="10.715025"
         id="rect8091-4-5-2"
         style="opacity:1;fill:#ffffff;fill-opacity:1;stroke:none;stroke-width:10;stroke-linecap:round;stroke-linejoin:round;stroke-miterlimit:4;stroke-dasharray:none;stroke-opacity:1" />
      <rect
         inkscape:transform-center-y="0.50140061"
         inkscape:transform-center-x="2.3819523"
         transform="matrix(0.66112085,-0.75027943,0.7156065,0.69850364,0,0)"
         ry="1.2871468"
         y="1093.8132"
         x="-93.846962"
         height="13.423101"
         width="9.7998562"
         id="rect8091-1-9-8-6"
         style="opacity:1;fill:#ffffff;fill-opacity:1;stroke:none;stroke-width:10;stroke-linecap:round;stroke-linejoin:round;stroke-miterlimit:4;stroke-dasharray:none;stroke-opacity:1" />
    </g>
    <rect
       style="opacity:1;fill:#008080;fill-opacity:1;stroke:none;stroke-width:10;stroke-linecap:round;stroke-linejoin:round;stroke-miterlimit:4;stroke-dasharray:none;stroke-opacity:1"
       id="rect8155-11-0"
       width="53.415501"
       height="53.415501"
       x="657.85803"
       y="901.56293"
       ry="8.9251375" />
    <rect
       style="opacity:1;fill:#ffffff;fill-opacity:1;stroke:none;stroke-width:10;stroke-linecap:round;stroke-linejoin:round;stroke-miterlimit:4;stroke-dasharray:none;stroke-opacity:1"
       id="rect8155-1-3-9-88"
       width="35.231499"
       height="27.19523"
       x="666.73663"
       y="911.93634"
       ry="4.5440211" />
    <rect
       style="opacity:1;fill:#008080;fill-opacity:1;stroke:none;stroke-width:10;stroke-linecap:round;stroke-linejoin:round;stroke-miterlimit:4;stroke-dasharray:none;stroke-opacity:1"
       id="rect8155-8-7-4-0"
       width="15.721583"
       height="12.135507"
       x="676.49158"
       y="919.46625"
       ry="2.0277085" />
    <rect
       style="opacity:1;fill:#ffffff;fill-opacity:1;stroke:none;stroke-width:10;stroke-linecap:round;stroke-linejoin:round;stroke-miterlimit:4;stroke-dasharray:none;stroke-opacity:1"
       id="rect8091-4-5-6"
       width="10.715025"
       height="14.733158"
       x="666.73956"
       y="931.15936"
       ry="1.4127687" />
    <rect
       style="opacity:1;fill:#ffffff;fill-opacity:1;stroke:none;stroke-width:10;stroke-linecap:round;stroke-linejoin:round;stroke-miterlimit:4;stroke-dasharray:none;stroke-opacity:1"
       id="rect8091-1-9-8-2"
       width="9.7998562"
       height="13.423101"
       x="-188.64333"
       y="1140.8911"
       ry="1.2871468"
       transform="matrix(0.66112085,-0.75027943,0.7156065,0.69850364,0,0)"
       inkscape:transform-center-x="2.3819523"
       inkscape:transform-center-y="0.50140061" />
    <rect
       style="opacity:1;fill:#008080;fill-opacity:1;stroke:none;stroke-width:10;stroke-linecap:round;stroke-linejoin:round;stroke-miterlimit:4;stroke-dasharray:none;stroke-opacity:1"
       id="rect8155-11-0-6"
       width="53.415501"
       height="53.415501"
       x="535.95673"
       y="855.40558"
       ry="8.9251375" />
    <g
       id="g8424"
       transform="translate(-215.36276,75.883597)">
      <rect
         ry="3.3017461"
         y="789.41913"
         x="762.20099"
         height="34.432491"
         width="10.715025"
         id="rect8091-4-5-6-3"
         style="opacity:1;fill:#ffffff;fill-opacity:1;stroke:none;stroke-width:10;stroke-linecap:round;stroke-linejoin:round;stroke-miterlimit:4;stroke-dasharray:none;stroke-opacity:1" />
      <rect
         transform="matrix(0,1,-1,0,0,0)"
         ry="3.1476259"
         y="-795.03546"
         x="789.15137"
         height="32.825237"
         width="10.715025"
         id="rect8091-4-5-6-3-1"
         style="opacity:1;fill:#ffffff;fill-opacity:1;stroke:none;stroke-width:10;stroke-linecap:round;stroke-linejoin:round;stroke-miterlimit:4;stroke-dasharray:none;stroke-opacity:1" />
      <rect
         transform="matrix(0,1,-1,0,0,0)"
         ry="2.4273286"
         y="-789.97296"
         x="805.37366"
         height="25.313568"
         width="8.7109137"
         id="rect8091-4-5-6-3-1-4"
         style="opacity:1;fill:#ffffff;fill-opacity:1;stroke:none;stroke-width:10;stroke-linecap:round;stroke-linejoin:round;stroke-miterlimit:4;stroke-dasharray:none;stroke-opacity:1" />
    </g>
    <text
       xml:space="preserve"
       style="font-style:normal;font-variant:normal;font-weight:normal;font-stretch:normal;font-size:60px;line-height:125%;font-family:Comfortaa;-inkscape-font-specification:'Comfortaa, Normal';text-align:start;letter-spacing:0px;word-spacing:0px;writing-mode:lr-tb;text-anchor:start;fill:#242627;fill-opacity:1;stroke:none;stroke-width:1px;stroke-linecap:butt;stroke-linejoin:miter;stroke-opacity:1"
       x="722.33868"
       y="864.19128"
       id="text8452"
       sodipodi:linespacing="125%"><tspan
         sodipodi:role="line"
         id="tspan8454"
         x="722.33868"
         y="864.19128">Facebook</tspan></text>
    <text
       xml:space="preserve"
       style="font-style:normal;font-variant:normal;font-weight:normal;font-stretch:normal;font-size:60px;line-height:125%;font-family:Comfortaa;-inkscape-font-specification:'Comfortaa, Normal';text-align:start;letter-spacing:0px;word-spacing:0px;writing-mode:lr-tb;text-anchor:start;fill:#008080;fill-opacity:1;stroke:none;stroke-width:1px;stroke-linecap:butt;stroke-linejoin:miter;stroke-opacity:1"
       x="716.43683"
       y="953.95386"
       id="text8452-3"
       sodipodi:linespacing="125%"><tspan
         sodipodi:role="line"
         id="tspan8454-6"
         x="716.43683"
         y="953.95386">Facebook</tspan></text>
    <text
       xml:space="preserve"
       style="font-style:normal;font-variant:normal;font-weight:normal;font-stretch:normal;font-size:60px;line-height:125%;font-family:Comfortaa;-inkscape-font-specification:'Comfortaa, Normal';text-align:start;letter-spacing:0px;word-spacing:0px;writing-mode:lr-tb;text-anchor:start;fill:#3765a3;fill-opacity:1;stroke:none;stroke-width:1px;stroke-linecap:butt;stroke-linejoin:miter;stroke-opacity:1"
       x="884.03589"
       y="1287.2706"
       id="text8452-3-0"
       sodipodi:linespacing="125%"><tspan
         sodipodi:role="line"
         id="tspan8454-6-7"
         x="884.03589"
         y="1287.2706">Facebook</tspan></text>
    <g
       id="g8563"
       transform="translate(3.6785549,-3.2922811)">
      <g
         transform="translate(131.07634,75.542711)"
         id="g8556">
        <rect
           style="opacity:1;fill:#3765a3;fill-opacity:1;stroke:none;stroke-width:10;stroke-linecap:round;stroke-linejoin:round;stroke-miterlimit:4;stroke-dasharray:none;stroke-opacity:1"
           id="rect8155-11-0-9"
           width="53.415501"
           height="53.415501"
           x="657.25507"
           y="976.51532"
           ry="8.9251375" />
        <rect
           style="opacity:1;fill:#ffffff;fill-opacity:1;stroke:none;stroke-width:10;stroke-linecap:round;stroke-linejoin:round;stroke-miterlimit:4;stroke-dasharray:none;stroke-opacity:1"
           id="rect8155-1-3-9-88-1"
           width="35.231499"
           height="27.19523"
           x="666.13367"
           y="986.88873"
           ry="4.5440211" />
        <rect
           style="opacity:1;fill:#3765a3;fill-opacity:1;stroke:none;stroke-width:10;stroke-linecap:round;stroke-linejoin:round;stroke-miterlimit:4;stroke-dasharray:none;stroke-opacity:1"
           id="rect8155-8-7-4-0-3"
           width="15.721583"
           height="12.135507"
           x="675.88861"
           y="994.41864"
           ry="2.0277085" />
        <rect
           style="opacity:1;fill:#ffffff;fill-opacity:1;stroke:none;stroke-width:10;stroke-linecap:round;stroke-linejoin:round;stroke-miterlimit:4;stroke-dasharray:none;stroke-opacity:1"
           id="rect8091-4-5-6-1"
           width="10.715025"
           height="14.733158"
           x="666.1366"
           y="1006.1118"
           ry="1.4127687" />
        <rect
           style="opacity:1;fill:#ffffff;fill-opacity:1;stroke:none;stroke-width:10;stroke-linecap:round;stroke-linejoin:round;stroke-miterlimit:4;stroke-dasharray:none;stroke-opacity:1"
           id="rect8091-1-9-8-2-7"
           width="9.7998562"
           height="13.423101"
           x="-242.7713"
           y="1190.0553"
           ry="1.2871468"
           transform="matrix(0.66112085,-0.75027943,0.7156065,0.69850364,0,0)"
           inkscape:transform-center-x="2.3819523"
           inkscape:transform-center-y="0.50140061" />
      </g>
      <text
         sodipodi:linespacing="125%"
         id="text8452-3-0-0"
         y="1102.2325"
         x="846.75555"
         style="font-style:normal;font-variant:normal;font-weight:normal;font-stretch:normal;font-size:60px;line-height:125%;font-family:Comfortaa;-inkscape-font-specification:'Comfortaa, Normal';text-align:start;letter-spacing:0px;word-spacing:0px;writing-mode:lr-tb;text-anchor:start;fill:#3765a3;fill-opacity:1;stroke:none;stroke-width:1px;stroke-linecap:butt;stroke-linejoin:miter;stroke-opacity:1"
         xml:space="preserve"><tspan
           y="1102.2325"
           x="846.75555"
           id="tspan8554"
           sodipodi:role="line">facebook</tspan></text>
    </g>
  </g>
</svg>
